# xmcd
#
# Track frame offsets:
#	150
#	14855
#	29064
#	43821
#	59017
#	75497
#	89604
#	103327
#	118845
#	137760
#	151510
#	166381
#	181116
#	195553
#	209904
#	227319
#	245543
#	264905
#
# Disc length: 3796 seconds
#
# Revision: 0
# Processed by: cddbd v1.4PL0 Copyright (c) Steve Scherf et al.
# Submitted via: dBpowerAMP V4.0
#
DISCID=000ed212
DTITLE=Ateens - Teen Spirit
DYEAR=1900
DGENRE=
TTITLE0=All my love
TTITLE1=Morning light
TTITLE2=Upside down
TTITLE3=To the music
TTITLE4=Halfway around the world
TTITLE5=Firefly
TTITLE6=Sugar rush
TTITLE7=Rocking
TTITLE8=Around the cornor of your eye
TTITLE9=Slamming kinda love
TTITLE10=For all that I am
TTITLE11=That's what (It's all about)
TTITLE12=Back for more
TTITLE13=S.O.S
TTITLE14=One of us
TTITLE15=Lay on your love on me
TTITLE16=The name of the game
TTITLE17=Our last summer
EXTD=
EXTT0=
EXTT1=
EXTT2=
EXTT3=
EXTT4=
EXTT5=
EXTT6=
EXTT7=
EXTT8=
EXTT9=
EXTT10=
EXTT11=
EXTT12=
EXTT13=
EXTT14=
EXTT15=
EXTT16=
EXTT17=
PLAYORDER=
